# xmcd
#
# Track frame offsets:
#	150
#	12086
#	25712
#	38248
#	49695
#	61992
#	73702
#	85249
#	96327
#	109212
#	120263
#	131856
#	143027
#	155923
#	167818
#	179449
#	192145
#	203322
#	214862
#	225788
#	238935
#	251792
#	264439
#	276705
#
# Disc length: 3843 seconds
#
# Revision: 1
# Processed by: cddbd v1.5.2PL0 Copyright (c) Steve Scherf et al.
# Submitted via: audiograbber 1.83.01
#
DISCID=580f0118
DTITLE=Al Dexter - Honky Tonk Blues 1936-40: The Early Recordings
DYEAR=1900
DGENRE=
TTITLE0=Honky Tonk Blues
TTITLE1=Why Can't We Be Sweethearts Why Can't We Be Friends
TTITLE2=Whisper Again That You Love Me
TTITLE3=Car Hoppin' Mama
TTITLE4=Broken Hearted Blues
TTITLE5=You've Got Love On Your Mind
TTITLE6=I'm Leaving My Troubles Behind
TTITLE7=Bring It On Home To Me
TTITLE8=I'm Happy When You're Happy
TTITLE9=In Days Of Yesterday
TTITLE10=Answer To "Honky Tonk Blues"
TTITLE11=Diddy, Wah, Diddy With A Blah! Blah!
TTITLE12=Jelly Roll Special
TTITLE13=My Troubles Don't Trouble Me Anymore
TTITLE14=Why Do I Think Of Someone
TTITLE15=Sunshine
TTITLE16=When We Go Honky Tonkin'
TTITLE17=Walking In My Sleep
TTITLE18=You May Be Sorry
TTITLE19=Down At The Roadside Inn
TTITLE20=Alimony Blues
TTITLE21=The Money You Spent Was Mine
TTITLE22=All I Want Is You
TTITLE23=Who's Been Here?
EXTD=
EXTT0=
EXTT1=
EXTT2=
EXTT3=
EXTT4=
EXTT5=
EXTT6=
EXTT7=
EXTT8=
EXTT9=
EXTT10=
EXTT11=
EXTT12=
EXTT13=
EXTT14=
EXTT15=
EXTT16=
EXTT17=
EXTT18=
EXTT19=
EXTT20=
EXTT21=
EXTT22=
EXTT23=
PLAYORDER=
